<mxfile host="app.diagrams.net" modified="2024-02-21T11:32:47.079Z" agent="Mozilla/5.0 (Windows NT 10.0; Win64; x64) AppleWebKit/537.36 (KHTML, like Gecko) Chrome/121.0.0.0 Safari/537.36" etag="V6CvAtlpFj3WEZDALFKM" version="23.1.5" type="device">
  <diagram name="1 oldal" id="Mkd-GLVrYvwAve7JAXXI">
    <mxGraphModel dx="794" dy="734" grid="1" gridSize="10" guides="1" tooltips="1" connect="1" arrows="1" fold="1" page="1" pageScale="1" pageWidth="827" pageHeight="1169" math="0" shadow="0">
      <root>
        <mxCell id="0" />
        <mxCell id="1" parent="0" />
        <mxCell id="X6I5A2nwreaftPiRllwq-1" value="" style="rounded=0;whiteSpace=wrap;html=1;" vertex="1" parent="1">
          <mxGeometry x="90" y="40" width="670" height="640" as="geometry" />
        </mxCell>
        <mxCell id="X6I5A2nwreaftPiRllwq-2" value="" style="rounded=0;whiteSpace=wrap;html=1;" vertex="1" parent="1">
          <mxGeometry x="110" y="80" width="620" height="250" as="geometry" />
        </mxCell>
        <mxCell id="X6I5A2nwreaftPiRllwq-3" value="Etterem" style="text;html=1;align=center;verticalAlign=middle;whiteSpace=wrap;rounded=0;" vertex="1" parent="1">
          <mxGeometry x="90" y="40" width="60" height="30" as="geometry" />
        </mxCell>
        <mxCell id="X6I5A2nwreaftPiRllwq-4" value="" style="rounded=0;whiteSpace=wrap;html=1;" vertex="1" parent="1">
          <mxGeometry x="130" y="360" width="240" height="260" as="geometry" />
        </mxCell>
        <mxCell id="X6I5A2nwreaftPiRllwq-5" value="Asztalok" style="text;html=1;align=center;verticalAlign=middle;whiteSpace=wrap;rounded=0;" vertex="1" parent="1">
          <mxGeometry x="110" y="80" width="60" height="30" as="geometry" />
        </mxCell>
        <mxCell id="X6I5A2nwreaftPiRllwq-6" value="Etlap" style="text;html=1;align=center;verticalAlign=middle;whiteSpace=wrap;rounded=0;" vertex="1" parent="1">
          <mxGeometry x="130" y="360" width="60" height="30" as="geometry" />
        </mxCell>
        <mxCell id="X6I5A2nwreaftPiRllwq-7" value="" style="rounded=0;whiteSpace=wrap;html=1;" vertex="1" parent="1">
          <mxGeometry x="440" y="430" width="270" height="120" as="geometry" />
        </mxCell>
        <mxCell id="X6I5A2nwreaftPiRllwq-8" value="Nev:" style="text;html=1;align=center;verticalAlign=middle;whiteSpace=wrap;rounded=0;" vertex="1" parent="1">
          <mxGeometry x="430" y="470" width="60" height="30" as="geometry" />
        </mxCell>
        <mxCell id="X6I5A2nwreaftPiRllwq-9" value="Ar:" style="text;html=1;align=center;verticalAlign=middle;whiteSpace=wrap;rounded=0;" vertex="1" parent="1">
          <mxGeometry x="430" y="500" width="60" height="30" as="geometry" />
        </mxCell>
        <mxCell id="X6I5A2nwreaftPiRllwq-10" value="" style="rounded=0;whiteSpace=wrap;html=1;" vertex="1" parent="1">
          <mxGeometry x="475" y="475" width="110" height="20" as="geometry" />
        </mxCell>
        <mxCell id="X6I5A2nwreaftPiRllwq-11" value="" style="rounded=0;whiteSpace=wrap;html=1;" vertex="1" parent="1">
          <mxGeometry x="475" y="505" width="110" height="20" as="geometry" />
        </mxCell>
        <mxCell id="X6I5A2nwreaftPiRllwq-12" value="+++" style="rounded=1;whiteSpace=wrap;html=1;" vertex="1" parent="1">
          <mxGeometry x="630" y="475" width="50" height="30" as="geometry" />
        </mxCell>
        <mxCell id="X6I5A2nwreaftPiRllwq-13" value="^^^" style="rounded=1;whiteSpace=wrap;html=1;" vertex="1" parent="1">
          <mxGeometry x="140" y="390" width="80" height="30" as="geometry" />
        </mxCell>
        <mxCell id="X6I5A2nwreaftPiRllwq-14" value="Etlap hozzaadas" style="text;html=1;align=center;verticalAlign=middle;whiteSpace=wrap;rounded=0;" vertex="1" parent="1">
          <mxGeometry x="440" y="430" width="110" height="30" as="geometry" />
        </mxCell>
        <mxCell id="X6I5A2nwreaftPiRllwq-15" value="" style="ellipse;whiteSpace=wrap;html=1;aspect=fixed;" vertex="1" parent="1">
          <mxGeometry x="120" y="110" width="20" height="20" as="geometry" />
        </mxCell>
        <mxCell id="X6I5A2nwreaftPiRllwq-16" value="Zold" style="text;html=1;align=center;verticalAlign=middle;whiteSpace=wrap;rounded=0;" vertex="1" parent="1">
          <mxGeometry x="150" y="105" width="60" height="30" as="geometry" />
        </mxCell>
        <mxCell id="X6I5A2nwreaftPiRllwq-17" value="" style="ellipse;whiteSpace=wrap;html=1;aspect=fixed;" vertex="1" parent="1">
          <mxGeometry x="440" y="110" width="20" height="20" as="geometry" />
        </mxCell>
        <mxCell id="X6I5A2nwreaftPiRllwq-18" value="Sarga" style="text;html=1;align=center;verticalAlign=middle;whiteSpace=wrap;rounded=0;" vertex="1" parent="1">
          <mxGeometry x="480" y="105" width="60" height="30" as="geometry" />
        </mxCell>
        <mxCell id="X6I5A2nwreaftPiRllwq-19" value="" style="ellipse;whiteSpace=wrap;html=1;aspect=fixed;" vertex="1" parent="1">
          <mxGeometry x="120" y="220" width="20" height="20" as="geometry" />
        </mxCell>
        <mxCell id="X6I5A2nwreaftPiRllwq-20" value="Piros" style="text;html=1;align=center;verticalAlign=middle;whiteSpace=wrap;rounded=0;" vertex="1" parent="1">
          <mxGeometry x="140" y="215" width="60" height="30" as="geometry" />
        </mxCell>
        <mxCell id="X6I5A2nwreaftPiRllwq-21" value="" style="ellipse;whiteSpace=wrap;html=1;aspect=fixed;" vertex="1" parent="1">
          <mxGeometry x="440" y="220" width="20" height="20" as="geometry" />
        </mxCell>
        <mxCell id="X6I5A2nwreaftPiRllwq-22" value="Kek" style="text;html=1;align=center;verticalAlign=middle;whiteSpace=wrap;rounded=0;" vertex="1" parent="1">
          <mxGeometry x="480" y="215" width="60" height="30" as="geometry" />
        </mxCell>
        <mxCell id="X6I5A2nwreaftPiRllwq-23" value="" style="rounded=0;whiteSpace=wrap;html=1;" vertex="1" parent="1">
          <mxGeometry x="150" y="130" width="210" height="80" as="geometry" />
        </mxCell>
        <mxCell id="X6I5A2nwreaftPiRllwq-24" value="" style="rounded=0;whiteSpace=wrap;html=1;" vertex="1" parent="1">
          <mxGeometry x="475" y="130" width="235" height="80" as="geometry" />
        </mxCell>
        <mxCell id="X6I5A2nwreaftPiRllwq-26" value="" style="rounded=0;whiteSpace=wrap;html=1;" vertex="1" parent="1">
          <mxGeometry x="150" y="245" width="210" height="75" as="geometry" />
        </mxCell>
        <mxCell id="X6I5A2nwreaftPiRllwq-27" value="" style="rounded=0;whiteSpace=wrap;html=1;" vertex="1" parent="1">
          <mxGeometry x="475" y="240" width="235" height="80" as="geometry" />
        </mxCell>
        <mxCell id="X6I5A2nwreaftPiRllwq-28" value="" style="rounded=0;whiteSpace=wrap;html=1;" vertex="1" parent="1">
          <mxGeometry x="140" y="430" width="220" height="180" as="geometry" />
        </mxCell>
      </root>
    </mxGraphModel>
  </diagram>
</mxfile>
